<svg xmlns="http://www.w3.org/2000/svg" width="15.285" height="14" viewBox="0 0 15.285 14">
  <path id="path8619" d="M136.433,2984.2a.98.98,0,0,0-.616.5l-.106.2v6.451l.106.2a.91.91,0,0,0,.455.441l.159.083H137.5v-7.933a8.105,8.105,0,0,0-1.071.045Zm4.143-1.042a2.543,2.543,0,0,0-2.032,2.113c-.045.178-.045,1.1-.045,3.165a23.7,23.7,0,0,0,.072,3.1,3.247,3.247,0,0,0,.388.814c.06.087,1.049,1.2,2.19,2.466.978,1.1,1.792,2.455,2.943,2.281a1.9,1.9,0,0,0,.96-.432,1.437,1.437,0,0,0,.48-1.111c0-.4-.046-.447-.718-1.7-.516-.929-.568-1.035-.565-1.169a.617.617,0,0,1,.083-.268c.158-.235,1.531-.231,3.363-.231,1.789,0,1.887,0,2.255-.185a1.932,1.932,0,0,0,.97-1.107,1.531,1.531,0,0,0,.076-.551,18.756,18.756,0,0,0-.561-2.882c-.594-2.711-.628-2.835-.885-3.223a2.59,2.59,0,0,0-1.71-1.089c-.344-.053-6.989-.045-7.283.045Z" transform="translate(-135.711 -2983.116)" fill="#999"/>
</svg>
