<svg xmlns="http://www.w3.org/2000/svg" width="23.982" height="24" viewBox="0 0 23.982 24">
  <path id="path1113" d="M553.058,401.169a12,12,0,0,1-10.109-16.636,12.245,12.245,0,0,1,6.36-6.364,12,12,0,0,1,6.28-.844,12.184,12.184,0,0,1,5.939,2.553,12,12,0,0,1-3.653,20.68l-.551.19v-8.863H559.9l.027-.153c.048-.27.353-2.682.353-2.791v-.105h-2.963l.016-1.232c.017-1.387.042-1.506.381-1.8.269-.237.423-.264,1.592-.284l1.068-.018v-2.707l-.317-.039c-.174-.022-.887-.039-1.583-.039a5.011,5.011,0,0,0-1.636.107,3.487,3.487,0,0,0-2.608,3.2c-.027.218-.049.941-.049,1.606v1.208l-1.278.013-1.278.012-.013,1.513-.012,1.513h2.581v9.335l-.316-.006c-.174,0-.537-.024-.807-.045Z" transform="translate(-542 -377.22)" fill="#fff"/>
</svg>
