<svg xmlns="http://www.w3.org/2000/svg" width="24" height="23.999" viewBox="0 0 24 23.999">
  <path id="path1113" d="M731.812,766.267A12,12,0,0,1,721.7,749.626a12.238,12.238,0,0,1,6.365-6.365,12,12,0,0,1,6.284-.845,12.189,12.189,0,0,1,5.944,2.554,12,12,0,0,1-3.656,20.684l-.551.192v-8.865h2.578l.038-.153c.045-.27.355-2.682.355-2.792v-.106h-2.965l.042-1.232c.037-1.387.045-1.506.378-1.8.272-.235.423-.262,1.593-.282h1.069V747.9l-.314-.039a15.173,15.173,0,0,0-1.585-.039,4.849,4.849,0,0,0-1.637.106,3.488,3.488,0,0,0-2.61,3.2,16,16,0,0,0-.049,1.607v1.208h-2.559l-.037,1.514-.038,1.513h2.583v9.338h-.317c-.174,0-.537-.04-.807-.043Z" transform="translate(-720.745 -742.312)" fill="#1a1a1a"/>
</svg>
