<svg xmlns="http://www.w3.org/2000/svg" width="15.284" height="14" viewBox="0 0 15.284 14">
  <path id="path8607" d="M88.726,2993.055a.966.966,0,0,1-.617-.5l-.106-.2v-6.451l.106-.2a.913.913,0,0,1,.456-.441l.158-.084h1.071v7.934a8.147,8.147,0,0,1-1.071-.045Zm4.142,1.042a2.541,2.541,0,0,1-2.031-2.113c-.045-.177-.045-1.095-.045-3.164a23.651,23.651,0,0,1,.072-3.1,3.137,3.137,0,0,1,.387-.815c.061-.087,1.05-1.2,2.19-2.466.978-1.1,1.792-2.455,2.942-2.281a1.911,1.911,0,0,1,.961.432,1.441,1.441,0,0,1,.479,1.112c0,.4-.045.446-.717,1.7-.516.929-.567,1.035-.566,1.169a.657.657,0,0,0,.083.269c.155.234,1.532.231,3.364.231,1.789,0,1.886,0,2.254.185a1.932,1.932,0,0,1,.971,1.106,1.522,1.522,0,0,1,.075.551,18.556,18.556,0,0,1-.561,2.882c-.593,2.711-.627,2.835-.884,3.223a2.589,2.589,0,0,1-1.71,1.089c-.344.053-6.988.046-7.282-.045Z" transform="translate(-88.003 -2980.141)" fill="#999"/>
</svg>
