<svg xmlns="http://www.w3.org/2000/svg" width="34.379" height="26.459" viewBox="0 0 34.379 26.459">
  <path id="path7167" d="M238.537,406.149c-.611-.218-.781-.58-.783-1.675v-.8l1.376-2.7,1.377-2.7v-8.852c0-10.015-.049-9.17.539-9.471l.295-.151h27.2l.3.151c.588.3.54-.544.54,9.471v8.852l1.377,2.7,1.377,2.7,0,.8c0,1.1-.17,1.457-.783,1.675-.382.137-32.426.137-32.808,0Zm32.571-1.4.038-.453H238.777v.425a2.347,2.347,0,0,0,.046.47c.037.026,7.3.038,16.164.026l16.12-.015Zm-20.7-2.417c.31-1.164.406-1.378.7-1.576l.227-.153h7.212l.227.153c.294.2.389.412.7,1.576l.257.957h5.533c3.043,0,5.523-.023,5.511-.053s-.515-1.026-1.116-2.216l-1.094-2.163h-27.25l-1.093,2.163c-.6,1.19-1.1,2.187-1.116,2.216s2.467.053,5.511.053h5.533Zm8.255.806c-.038-.083-.129-.454-.231-.823l-.181-.671h-6.623l-.181.671c-.1.37-.2.74-.231.823l-.049.151H258.7Zm9.707-13.815V380.8H241.512v17.054h26.857Zm-25.421,7.325a.786.786,0,0,1-.284-.346,24.943,24.943,0,0,1-.075-2.985c0-2.7,0-2.771.14-2.944a.446.446,0,0,1,.7-.011l.166.165v5.243h22.694v-5.243l.166-.165a.448.448,0,0,1,.7.011c.136.172.139.246.139,2.957,0,3.054,0,3.143-.394,3.341-.181.094-1.42.105-11.973.105-11.45,0-11.775,0-11.979-.128Zm-.11-8.236a.47.47,0,0,1-.219-.249c-.038-.082-.038-1.423,0-2.979,0-2.72.038-2.835.155-2.98.314-.35-.295-.333,12.186-.333s11.874-.016,12.186.333c.129.145.136.26.155,2.98,0,1.557,0,2.9,0,2.98a.577.577,0,0,1-.231.25.487.487,0,0,1-.667-.2,20.2,20.2,0,0,1-.076-2.75v-2.582H243.633v2.582a23.8,23.8,0,0,1-.076,2.75.531.531,0,0,1-.279.238,2.079,2.079,0,0,1-.208.067s-.091-.047-.19-.1Z" transform="translate(-237.753 -379.793)" fill="#1a1a1a"/>
</svg>
