<svg xmlns="http://www.w3.org/2000/svg" width="70.874" height="80.192" viewBox="0 0 70.874 80.192">
  <path id="path2162" d="M484.426,4671.379c-.038-.121-.049-1.73-.1-3.572l-.083-3.348h9.769c5.373,0,9.77-.091,9.77-.2a18.658,18.658,0,0,0-.712-2.009,17.039,17.039,0,0,1-.914-3.52l-.2-1.712H484.1l.1-.669.1-.669,8.833-.08,8.833-.079.212-1.707a21.777,21.777,0,0,1,1.468-5.2c.2-.49-.378-.521-9.663-.521H484.1l.1-.67.094-.67,11.655-.08,11.654-.075.846.7c2.163,1.789,10.8,8.236,11.039,8.236.143,0,2.915-2.009,6.155-4.464l5.892-4.465h23.444v1.489H535.4l.672,1.86a19.763,19.763,0,0,1,.885,3.72l.212,1.86h8.9c8.7,0,8.9.038,8.9.6,0,.582-.2.6-8.89.6h-8.89l-.208,1.86a16.924,16.924,0,0,1-.931,3.669,18.133,18.133,0,0,0-.722,2.009c0,.11,4.4.2,9.776.2h9.777l-.038,3.571-.038,3.57H531.256l-3.85-2.984c-2.118-1.642-4.616-3.583-5.552-4.316a8.016,8.016,0,0,0-2.1-1.331c-.329,0-4.448,3.219-7.359,5.754-.409.359-1.36,1.151-2.114,1.763l-1.37,1.115H496.665c-6.735,0-12.253-.1-12.262-.223Zm23.982-7.692c2.566-3.372,2.449-12.136-.2-15.155-1.7-1.937-3.442-1.069-4.617,2.3-.427,1.226-.547,2.455-.547,5.589,0,3.809.042,4.116.866,5.9,1.428,3.092,2.858,3.527,4.5,1.369Zm25.848.215c2.718-2.837,2.663-12.838-.087-15.783-1.083-1.159-1.939-1.166-3.005-.038-1.3,1.393-1.836,3.305-2,7.148-.17,3.892.283,6.307,1.554,8.319.633,1,.914,1.2,1.738,1.2a2.328,2.328,0,0,0,1.8-.855Zm-20.946-3.294c.573-.419,1.186-.9,1.361-1.059s.942-.766,1.7-1.339a6,6,0,0,0,1.391-1.264,13.413,13.413,0,0,0-3.413-.223h-3.423v1.128a14.205,14.205,0,0,1-.446,2.842c-.621,2.384-.589,2.457.67,1.514.613-.46,1.585-1.179,2.157-1.6Zm15.774,1.783a18.409,18.409,0,0,0-.447-2,14.273,14.273,0,0,1-.446-2.842v-1.128h-3.423a13.315,13.315,0,0,0-3.422.227,12.2,12.2,0,0,0,2.118,1.859c1.166.9,2.806,2.2,3.646,2.89,1.557,1.282,1.974,1.491,1.974.987Zm-11.012-6.676c0-.185-7.154-5.564-7.65-5.754-.337-.129-.411-.038-.284.393a18.7,18.7,0,0,1,.782,4.36l.038,1.116h3.572a28.035,28.035,0,0,0,3.571-.113Zm10.123-1a17.287,17.287,0,0,1,.453-3.02,8.636,8.636,0,0,0,.34-2.008,21.544,21.544,0,0,0-2.909,2.06c-1.541,1.191-3.237,2.472-3.77,2.848s-.967.806-.967.959a10.569,10.569,0,0,0,3.423.279h3.423v-1.116Zm-10.266-4.894c-.076-.212-.178-2.755-.219-5.647a36.4,36.4,0,0,0-.314-5.488c-.124-.124-.812.053-1.525.4a3.7,3.7,0,0,0-1.958,2c-.855,1.767-.64,2.622,1.069,4.261.967.926,1.21,1.315.9,1.435-.625.238-2.041-.58-3.118-1.807-1.626-1.851-1.219-4.475.958-6.178,2.049-1.6,2.24-1.612,4.768-.223l2.279,1.251-.083,5.1-.083,5.1-1.267.091c-.844.061-1.314-.038-1.4-.3Zm4.475-2.852c-.31-.31-.17-.534.672-1.028a3.646,3.646,0,0,0,1.731-3.549c-.295-1.565-1.719-2.708-6.26-5.02-2.263-1.151-4.681-2.484-5.374-2.961-4.836-3.327-5.309-8.551-.975-10.763,1.445-.737,1.493-.725,6.4,1.564l3.109,1.451-.215,3.721c-.133,2.3-.106,3.721.072,3.721a11.842,11.842,0,0,0,3.659-2.6,3.267,3.267,0,0,0,.594-1.951c0-1.018-.185-1.374-1.247-2.383a10.877,10.877,0,0,0-2.6-1.775c-5.638-2.449-11.022-5.346-12.633-6.8-3.543-3.192-3.765-6.364-.585-8.329,2-1.232,6.31-.792,6.592.673.129.675-.872.94-2.186.577-1.832-.5-3.378.449-3.4,2.1-.038.576.367,1.123,1.369,2,1.343,1.182,2.8,1.957,10.585,5.632,4.213,1.988,5.793,3.108,6.726,4.768,2.162,3.847.124,7.761-4.946,9.51-.892.306-1.187.242-2.976-.659-3.365-1.694-3.294-1.579-3.4-5.588a19.854,19.854,0,0,0-.291-3.68c-.253-.253-1.977.8-3.017,1.84-1.445,1.443-.842,3.921,1.345,5.537.546.4,2.734,1.714,4.861,2.913,5.539,3.119,6.817,4.669,6.267,7.6-.306,1.622-3.157,4.184-3.868,3.473Zm-1.877-27.833-3.944-1.836v-7.6h5.674l-.17,3.2c-.095,1.759-.235,3.836-.318,4.613s-.076,1.414.038,1.414a22.949,22.949,0,0,0,2.25-1.05c4.479-2.255,6.013-4.972,3.53-6.255a2.351,2.351,0,0,0-2.077-.129c-2.1.566-3.186-.344-1.629-1.364a5.385,5.385,0,0,1,4.518-.3c3.4,1.153,4.642,3.808,3.118,6.656-.716,1.338-5.544,4.571-6.731,4.508-.167-.038-2.072-.842-4.241-1.852Zm-15.291-11.027a5.736,5.736,0,0,1,1.525-.938c1.183-.533,1.192-.549,1.2-2.2a5.153,5.153,0,0,1,1.042-3.289,8.022,8.022,0,0,0,1.034-2.013c0-.651-1.751-1.506-4.139-2.021-4.133-.893-7.974-2.253-8.8-3.116-.911-.951-1.332-2.809-.693-3.055a17.866,17.866,0,0,1,4.187,1.573c2.073.953,5.616,2.351,7.873,3.107a31.613,31.613,0,0,1,4.822,1.918c.705.534.711.578.329,2.374a5.189,5.189,0,0,0-.185,2.032c.11.11.566-.037,1.009-.321a8.158,8.158,0,0,1,9.649,0c1.09.709,1.321.356.857-1.32-.212-.772-.408-1.6-.432-1.828-.067-.686,1.6-1.62,4.751-2.666a72.055,72.055,0,0,0,9.59-3.813c3.172-1.517,3.785-1.5,3.525.1-.347,2.163-2,3.072-8.558,4.705-4.1,1.022-5.331,1.588-5.331,2.449a7.13,7.13,0,0,0,1.06,1.949,4.014,4.014,0,0,1,1.015,2.9c-.038.744-.038,1.514-.038,1.711a2.826,2.826,0,0,0,1.328.933,4.919,4.919,0,0,1,1.5.907c.152.242-3.678.329-14.134.329-11.981,0-14.285-.068-14.007-.4Zm-1.6-2.393c-1.085-.473-1.834-1.309-1.46-1.631.389-.333,3.99.538,3.99.969a1.253,1.253,0,0,1-1.176,1.064,6.6,6.6,0,0,1-1.354-.4Zm29.092.216a.785.785,0,0,1-.374-.7c0-.415.363-.624,1.5-.869,2.571-.551,3.292-.343,2.143.616a3.608,3.608,0,0,1-3.274.948Zm-29.882-2.917c-1.336-.5-2.632-1.329-2.632-1.683,0-.4,1.423-.283,3.72.314,1.642.428,2.083.66,2.083,1.1,0,.714-1.617.851-3.171.272Zm29.466.136c-.038-.166-.061-.449-.08-.635-.037-.422,5.523-1.818,5.869-1.472.389.389-.913,1.43-2.421,1.945-1.532.521-3.306.607-3.373.166Zm-28.81-2.559a18.768,18.768,0,0,1-2.929-1.088c-1.321-.659-2.663-2.133-2.2-2.418a6.548,6.548,0,0,1,2.163.443c1.052.329,2.91.789,4.131,1.024a7.689,7.689,0,0,1,2.679.9c.415.423.393.523-.242,1.044-.823.675-1.4.69-3.6.1Zm28.036.171a1.048,1.048,0,0,1-.669-.852c0-.63.924-1.025,3.248-1.386a25.318,25.318,0,0,0,3.4-.913c2.529-.86,2.577-.862,2.577-.11,0,.795-2.255,2.219-4.719,2.98-2.057.636-2.811.69-3.837.28Z" transform="translate(-484.097 -4591.407)" fill="#1a1a1a"/>
</svg>
