<svg xmlns="http://www.w3.org/2000/svg" width="24" height="23.992" viewBox="0 0 24 23.992">
  <path id="path11478" d="M519.085,401.167a12.008,12.008,0,0,1-8.649-19.22,14.669,14.669,0,0,1,2.1-2.145,12.013,12.013,0,0,1,5.962-2.509,15.41,15.41,0,0,1,2.888-.022,12.3,12.3,0,0,1,6.155,2.589,12,12,0,0,1-8.456,21.307Zm-1.09-6.023a9.987,9.987,0,0,0,1.043-.963,9.407,9.407,0,0,1,.961-.9,10.562,10.562,0,0,1,1.01.935c.806.8.966.94,1.121.968a.812.812,0,0,0,.943-.89c-.028-.173-.146-.308-1.232-1.4-.66-.664-1.191-1.215-1.18-1.223a3.562,3.562,0,0,1,.4-.076,4.58,4.58,0,0,0,2.12-.9c.433-.356.536-.658.35-1.022a.791.791,0,0,0-1.261-.235,4.136,4.136,0,0,1-2.52.679,3.99,3.99,0,0,1-1.932-.628,1.182,1.182,0,0,0-.648-.249.737.737,0,0,0-.712,1.01,3.708,3.708,0,0,0,2.528,1.345l.412.059-1.17,1.176c-.644.646-1.194,1.222-1.223,1.278a.862.862,0,0,0,.015.616.773.773,0,0,0,.98.413Zm2.606-5.923a3.1,3.1,0,0,0,2.384-2.35,3.18,3.18,0,0,0-.364-2.213,3.755,3.755,0,0,0-1.036-1.036,4.331,4.331,0,0,0-.606-.281,3.888,3.888,0,0,0-1.956,0,4.277,4.277,0,0,0-.606.281,3.7,3.7,0,0,0-1.019,1.019,3.225,3.225,0,0,0-.384,2.212,3.137,3.137,0,0,0,1.628,2.1,2.94,2.94,0,0,0,1.959.264Zm-1.144-1.62a1.418,1.418,0,0,1-.767-.71,1.1,1.1,0,0,1-.145-.624,1.287,1.287,0,0,1,.42-1.061,1.344,1.344,0,0,1,1.083-.434,1.46,1.46,0,0,1,1.269.8,1.185,1.185,0,0,1,.116.673,1.063,1.063,0,0,1-.14.7A1.5,1.5,0,0,1,519.457,387.6Z" transform="translate(-508 -377.214)" fill="#fff"/>
</svg>
