<svg xmlns="http://www.w3.org/2000/svg" width="20" height="20" viewBox="0 0 20 20">
  <path id="path1485" d="M76.807,511.64c-.136-.061-.837-.74-3.058-2.959a37.507,37.507,0,0,0-2.935-2.841c-.356.257-1.011.676-1.274.815a7.961,7.961,0,0,1-6.347.415,7.908,7.908,0,1,1,6.067-14.589,7.9,7.9,0,0,1,3.654,10.8c-.139.264-.558.919-.815,1.275a37.483,37.483,0,0,0,2.841,2.935c3,3,3.036,3.042,3.038,3.365a.861.861,0,0,1-.863.864A.976.976,0,0,1,76.807,511.64Zm-10.061-5.824a6.276,6.276,0,0,0,5.211-4.7,6.515,6.515,0,0,0-.012-3.02,6.244,6.244,0,0,0-9.684-3.537A8.285,8.285,0,0,0,60.814,496a6.238,6.238,0,0,0,2.956,9.5A6.157,6.157,0,0,0,66.746,505.816Z" transform="translate(-57.978 -491.72)" fill="#1a1a1a"/>
</svg>
