<svg xmlns="http://www.w3.org/2000/svg" width="33.487" height="43.63" viewBox="0 0 33.487 43.63">
  <g id="g1602" transform="translate(-926.475 -722.356)">
    <g id="g1522">
      <g id="g1520">
        <path id="path1518" d="M959.772,740.489a14.353,14.353,0,0,1-3.37-8.461,19.371,19.371,0,0,1,.154-4.667l.124-.652-6.287-.96-7.174,11.506-7.175-11.506-5.63.86-.655.1.122.651a19.323,19.323,0,0,1,.154,4.668,14.352,14.352,0,0,1-3.37,8.461l-.19.209,2.375,25.288h28.738l2.374-25.288Zm-17.194,24.217H930.015L927.8,741.137a15.552,15.552,0,0,0,3.512-9.039,21.544,21.544,0,0,0-.077-4.32l4.167-.637,7.174,11.506Zm13.844,0H943.859V738.647l7.174-11.506,4.167.637a21.619,21.619,0,0,0-.077,4.32,15.561,15.561,0,0,0,3.512,9.039Z" fill="#1a1a1a"/>
      </g>
    </g>
    <g id="g1528">
      <g id="g1526">
        <path id="path1524" d="M943.219,724.278l-5.3-1.922v5.207l5.3-1.923,5.3,1.923v-5.207Zm-4.016,1.458v-1.553l2.139.776Zm8.032,0-2.14-.777,2.14-.776Z" fill="#1a1a1a"/>
      </g>
    </g>
    <g id="g1534">
      <g id="g1532">
        <path id="path1530" d="M939.681,748.292a1.516,1.516,0,1,0,1.515,1.516A1.518,1.518,0,0,0,939.681,748.292Zm0,1.751a.235.235,0,1,1,.235-.235A.235.235,0,0,1,939.681,750.043Z" fill="#1a1a1a"/>
      </g>
    </g>
    <g id="g1540">
      <g id="g1538">
        <path id="path1536" d="M939.681,753.725a1.516,1.516,0,1,0,1.515,1.515A1.517,1.517,0,0,0,939.681,753.725Zm0,1.751a.236.236,0,1,1,.235-.236A.236.236,0,0,1,939.681,755.476Z" fill="#1a1a1a"/>
      </g>
    </g>
    <g id="g1546">
      <g id="g1544">
        <path id="path1542" d="M939.681,759.157a1.516,1.516,0,1,0,1.515,1.516A1.518,1.518,0,0,0,939.681,759.157Zm0,1.751a.235.235,0,1,1,.235-.235A.235.235,0,0,1,939.681,760.908Z" fill="#1a1a1a"/>
      </g>
    </g>
    <g id="g1552">
      <g id="g1550">
        <path id="path1548" d="M954.765,743.717l-3.659-2.871-3.7,2.871h-1.594V745h10.472v-1.28Zm-5.273,0,1.609-1.248,1.59,1.248Z" fill="#1a1a1a"/>
      </g>
    </g>
    <g id="g1558">
      <g id="g1556">
        <rect id="rect1554" width="1.28" height="6.456" transform="matrix(0.996, -0.094, 0.094, 0.996, 928.488, 742.563)" fill="#1a1a1a"/>
      </g>
    </g>
    <g id="g1564">
      <g id="g1562">
        <rect id="rect1560" width="1.28" height="3.403" transform="matrix(0.996, -0.094, 0.094, 0.996, 929.233, 749.867)" fill="#1a1a1a"/>
      </g>
    </g>
    <g id="g1570">
      <g id="g1568">
        <path id="polygon1566" d="M954.78,762.979h-2.242v1.28h3.408l.5-5.33-1.275-.12Z" fill="#1a1a1a"/>
      </g>
    </g>
  </g>
</svg>
