<svg xmlns="http://www.w3.org/2000/svg" width="22.899" height="21.081" viewBox="0 0 22.899 21.081">
  <g id="Group_1" data-name="Group 1" transform="translate(-963.869 -11.047)">
    <path id="path9553" d="M969.772,32.084a1.883,1.883,0,0,1-.939-.53,1.793,1.793,0,0,1-.515-.889,1.857,1.857,0,0,1,0-.959,1.776,1.776,0,0,1,.515-.889,1.948,1.948,0,0,1,3.111,2.251,1.954,1.954,0,0,1-2.148,1.016Zm5.692,0A1.974,1.974,0,0,1,974,30.653a2.315,2.315,0,0,1,.053-1.1,2.023,2.023,0,0,1,1.275-1.222,1.666,1.666,0,0,1,.564-.071,1.827,1.827,0,0,1,1.37.563,1.735,1.735,0,0,1,.553,1.272,1.879,1.879,0,0,1-1.054,1.83,1.946,1.946,0,0,1-1.287.163ZM968.3,27.389a.733.733,0,0,1-.332-.381c0-.058-.412-2.368-.879-5.134l-.85-5.029H965.3a4.289,4.289,0,0,1-1.062-.049.555.555,0,0,1-.366-.545.566.566,0,0,1,.366-.546,16.481,16.481,0,0,1,2.721,0,.62.62,0,0,1,.314.275c.053.064.532,2.784.532,2.9,0,.011,2.593.023,5.762.023,5.672,0,5.765,0,5.887.063a.567.567,0,0,1,.314.583c0,.171-2.009,5.171-2.106,5.3a.811.811,0,0,1-.208.17c-.124.062-.193.064-4.354.064-2.326,0-4.235,0-4.243.015s.053.269.083.58l.1.564h5.1a34.806,34.806,0,0,1,3.486.034.58.58,0,0,1,.417.6.6.6,0,0,1-.374.525c-.143.056-9.245.044-9.372-.011Z" fill="#fe514b"/>
    <g id="text9557" style="isolation: isolate">
      <text id="_3" data-name="3" transform="translate(980.768 22.047)" fill="#fe514b" font-size="10.667" font-family="SourceSansPro-Regular, Source Sans Pro" style="isolation: isolate"><tspan x="0" y="0">3</tspan></text>
    </g>
  </g>
</svg>
