<svg xmlns="http://www.w3.org/2000/svg" width="75.236" height="93.282" viewBox="0 0 75.236 93.282">
  <path id="path2187" d="M239.335,4580.159a1.1,1.1,0,0,0-1.1-1.1h-72.97a1.1,1.1,0,0,0-1.1,1.1v74.011c0,3.592,2.177,10.384,10.4,10.384H194.69c5.987,0,6.1,6.421,6.106,6.692a1.1,1.1,0,0,0,1.1,1.1h0a1.1,1.1,0,0,0,1.1-1.1h0a8.131,8.131,0,0,1,1.961-5.206,5.418,5.418,0,0,1,3.923-1.433c5.205.037,12.571,0,16.973-.042h3.07c8.233,0,10.456-6.747,10.482-10.323Zm-28.3,54.98c-1.511-1.738-1.533-3.873-.068-6.343a.92.92,0,0,0,.193-.6c-.583-3.478,1.773-4.36,2.547-4.649a1.583,1.583,0,0,0,.344-.166l.117-.121a1.705,1.705,0,0,1,1.293-.883c.818-.038,1.619.854,1.866,1.189l.159.2.245.042a2.338,2.338,0,0,1,.767.2l.193.1a2.169,2.169,0,0,1,.526.382l.042.041a2.07,2.07,0,0,1,.37.5v.042a2.42,2.42,0,0,1,.231.65,3.565,3.565,0,0,1,.083.813v.219l.151.159a4.144,4.144,0,0,1,1.328,3.372c0,.242,0,.473,0,.691v.193l.17.143a6.167,6.167,0,0,1,.246,3.284,2.211,2.211,0,0,1-.813,1.464l-.136.083-.072.143c-.11.223-.061.429.041.8.3,1.26.469,2.653-1.2,3.285l-.442.17.1.463a1.584,1.584,0,0,1,.053.4c0,.037,0,.06,0,.086a.67.67,0,0,1-.042.288v.075c-.037.091-.06.185-.1.269a.07.07,0,0,1-.041.06,1.213,1.213,0,0,1-.185.25c-.038.038-.061.072-.087.1l-.038.038a3.428,3.428,0,0,1-1.563.738l-.461.076v10.319h-1.628v-10.228l-.417-.11a3.57,3.57,0,0,1-2.659-3.245,1.206,1.206,0,0,0-.425-.961c-.478-.55-1.2-1.382-.6-3.479l.083-.287Zm6.937,9.11a4.643,4.643,0,0,0,1.442-.727,5.478,5.478,0,0,0,1.327.745v2.594l-2.769.763Zm2.175-1.544v-.038a2.429,2.429,0,0,0,.26-.678v-.042a2.718,2.718,0,0,0,.049-.772,3.349,3.349,0,0,0,1.563-3.962,1.117,1.117,0,0,0-.053-.245c0-.064-.042-.121-.042-.174v-.064a3.889,3.889,0,0,0,1.118-2.7,6.66,6.66,0,0,0-.5-3.348v-.443a5.216,5.216,0,0,0-1.483-3.977,3.811,3.811,0,0,0-.7-2.164l-.045-.041a2.717,2.717,0,0,0-.355-.4c.129-.053.238-.1.325-.133a1.62,1.62,0,0,0,.344-.162l.117-.121a1.71,1.71,0,0,1,1.293-.883c.807-.038,1.619.854,1.866,1.19l.158.2.25.042a2.334,2.334,0,0,1,.766.2l.193.1a2.321,2.321,0,0,1,.527.378l.041.042a2.043,2.043,0,0,1,.371.5v.042a2.421,2.421,0,0,1,.23.65,3.5,3.5,0,0,1,.083.812v.219l.147.155a4.145,4.145,0,0,1,1.328,3.373c0,.238,0,.472,0,.691v.193l.17.143a6.154,6.154,0,0,1,.246,3.284,2.182,2.182,0,0,1-.814,1.463l-.136.084-.072.151c-.11.223-.06.428.045.8.295,1.258.469,2.652-1.2,3.284l-.442.171.1.463a2.237,2.237,0,0,1,.053.4c0,.045,0,.06,0,.09a.735.735,0,0,1-.038.288v.076c-.041.09-.06.185-.1.272a.059.059,0,0,1-.038.053,1.231,1.231,0,0,1-.185.253c-.038.042-.06.072-.087.1l-.037.042a3.435,3.435,0,0,1-1.565.738l-.46.076v10.32h-1.629v-10.226l-.414-.11a4.348,4.348,0,0,1-1.277-.633Zm4.42,1.544a4.649,4.649,0,0,0,1.441-.727,5.5,5.5,0,0,0,1.328.745v.933l-2.769.3Zm2.174-1.544v-.038a2.3,2.3,0,0,0,.257-.678v-.042a2.715,2.715,0,0,0,.054-.772,3.349,3.349,0,0,0,1.563-3.962,1.117,1.117,0,0,0-.053-.245c0-.064-.042-.121-.042-.174v-.064a3.889,3.889,0,0,0,1.118-2.7,6.649,6.649,0,0,0-.5-3.348v-.443a5.214,5.214,0,0,0-1.484-3.977,3.826,3.826,0,0,0-.7-2.164h0a3.206,3.206,0,0,0-.378-.433c.129-.049.238-.1.325-.132a1.617,1.617,0,0,0,.34-.163l.11-.121a1.7,1.7,0,0,1,1.292-.882c.8-.046,1.62.854,1.867,1.189l.159.2.245.038a2.453,2.453,0,0,1,2.239,2.71v.219l.147.159a4.142,4.142,0,0,1,1.328,3.372c0,.238,0,.472,0,.691v.193l.17.143a6.15,6.15,0,0,1,.246,3.283,2.185,2.185,0,0,1-.814,1.464l-.136.083-.072.143c-.109.223-.06.429.042.8.295,1.259.469,2.652-1.2,3.284l-.442.171.1.463a1.584,1.584,0,0,1-.2,1.285,3.074,3.074,0,0,1-1.8,1.015l-.461.076v10.32h-1.627v-10.227l-.418-.11a4.372,4.372,0,0,1-1.277-.632Zm4.421,1.544a3.849,3.849,0,0,0,2.068-1.365,2.57,2.57,0,0,0,.431-1.692c2.233-1.128,1.665-3.556,1.47-4.383v-.065a3.884,3.884,0,0,0,1.118-2.7,6.712,6.712,0,0,0-.5-3.347v-.443a5.214,5.214,0,0,0-1.484-3.977,3.535,3.535,0,0,0-3.007-3.556,3.92,3.92,0,0,0-2.6-1.443,2.621,2.621,0,0,0-2.091,1.223h-.042a7.206,7.206,0,0,0-1,.463,3.736,3.736,0,0,0-.865-.261,3.961,3.961,0,0,0-2.6-1.443,2.621,2.621,0,0,0-2.09,1.224h-.042a7.111,7.111,0,0,0-1,.463,3.715,3.715,0,0,0-.865-.261,3.772,3.772,0,0,0-2.58-1.444h-.042a2.62,2.62,0,0,0-2.089,1.222h-.042a4.785,4.785,0,0,0-3.27,5.67.057.057,0,0,1-.038.053c-2.057,3.457-1.194,5.9,0,7.4a4.162,4.162,0,0,0,.9,4.22c.049.06.11.132.159.185h0a4.582,4.582,0,0,0,3.08,4.232v3.17c-2.986-1.071-6.751-2.919-6.857-4.169h-.041l-.59-28.165h1.817v-4.4H206.78v-1.8h-9.8v1.8h-1.7v4.4h1.832l-.6,28.513h-.125c-.1,1.257-3.922,3.121-6.916,4.191v-3.533a4.577,4.577,0,0,0,3.079-4.232h0c.046-.054.1-.125.155-.185a4.166,4.166,0,0,0,.9-4.22c1.186-1.5,2.048-3.94,0-7.4a.038.038,0,0,0-.041-.038,4.8,4.8,0,0,0-3.275-5.676h-.041a2.648,2.648,0,0,0-2.1-1.233H188.1a3.767,3.767,0,0,0-2.581,1.443,3.309,3.309,0,0,0-.865.261,6.88,6.88,0,0,0-1-.463h-.038a2.653,2.653,0,0,0-2.1-1.235h-.038a3.768,3.768,0,0,0-2.581,1.443,3.411,3.411,0,0,0-.864.257,7.091,7.091,0,0,0-1-.463H177a2.657,2.657,0,0,0-2.1-1.236h-.041a3.771,3.771,0,0,0-2.581,1.444,3.539,3.539,0,0,0-3.007,3.556,5.158,5.158,0,0,0-1.484,3.978c0,.155,0,.3,0,.442a6.711,6.711,0,0,0-.5,3.346,3.875,3.875,0,0,0,1.117,2.7v.064c-.2.828-.762,3.255,1.471,4.383a2.535,2.535,0,0,0,.429,1.692,3.818,3.818,0,0,0,2.068,1.365v3.239c-1.109,2.566-4.378,4.19-6.116,4.9v-52.838l24.913-.144,10.629-6.96,10.626,6.917,24.621.1.041,52.532c-1.786-.744-4.955-2.37-6.007-4.9h-.038v-2.845Zm-23.1,7.727h.227v.824H195.628v-.824h12.437Zm-11.2-1.1v-.824h10.1v.824Zm8.839-40.159h-7.6v-.7h7.6Zm1.1,1.1h.585v2.2H196.4v-2.2h10.406Zm-9.283,37.137.708-33.839h7.343l.709,33.839Zm-24.407-5.679a3.081,3.081,0,0,1-1.8-1.015,1.6,1.6,0,0,1-.193-1.286l.1-.463-.442-.166c-1.669-.632-1.495-2.027-1.2-3.284a1.219,1.219,0,0,0,.038-.8l-.072-.148-.136-.083a2.211,2.211,0,0,1-.813-1.464,6.454,6.454,0,0,1,.219-3.252l.17-.147v-.909a4.2,4.2,0,0,1,1.328-3.373l.155-.159v-.219a2.465,2.465,0,0,1,2.236-2.71h.253l.148-.2a2.882,2.882,0,0,1,1.851-1.189h0a1.683,1.683,0,0,1,1.293.882l.11.121a1.128,1.128,0,0,0,.34.163c.09.041.2.079.325.132a3.4,3.4,0,0,0-.344.389s-.038.038-.038.053a3.788,3.788,0,0,0-.7,2.163,5.156,5.156,0,0,0-1.484,3.978c0,.159,0,.3,0,.442a6.7,6.7,0,0,0-.5,3.346,3.865,3.865,0,0,0,1.117,2.7v.065c0,.053-.045.109-.045.173a4.946,4.946,0,0,0,0,2.546c0,.045.045.083.053.129.041.064.041.124.076.189a2.9,2.9,0,0,0,1.369,1.351,2.09,2.09,0,0,0,.053.773v.038a2.46,2.46,0,0,0,.261.679v.038a4.1,4.1,0,0,1-1.277.633l-.416.11v10.226h-1.627l0-10.319Zm3.188.994a5.513,5.513,0,0,0,1.328-.746,4.534,4.534,0,0,0,1.441.727v1.59l-2.769-.307Zm1.84-1.735h0c-.045-.041-.072-.083-.11-.124a1.482,1.482,0,0,1-.174-.246.071.071,0,0,0-.038-.06,1.387,1.387,0,0,1-.1-.269v-.075c0-.091-.041-.193-.041-.288v-.083a1.084,1.084,0,0,1,.053-.4l.1-.463-.442-.166c-1.669-.632-1.495-2.028-1.2-3.285a1.211,1.211,0,0,0,.038-.8l-.072-.143-.136-.083a2.216,2.216,0,0,1-.813-1.464,6.466,6.466,0,0,1,.219-3.252l.171-.144v-.908a4.2,4.2,0,0,1,1.327-3.373l.155-.159v-.219a5.113,5.113,0,0,1,.083-.811,2.606,2.606,0,0,1,.235-.653h0a2,2,0,0,1,.378-.509l.041-.042a2.419,2.419,0,0,1,.53-.381l.193-.1a2.551,2.551,0,0,1,.761-.2h.254l.147-.2a2.888,2.888,0,0,1,1.852-1.19h0a1.68,1.68,0,0,1,1.293.883l.11.121a1.152,1.152,0,0,0,.34.163c.091.037.2.079.325.132a2.916,2.916,0,0,0-.344.389s-.041.042-.041.053a3.793,3.793,0,0,0-.7,2.163,5.15,5.15,0,0,0-1.484,3.978c0,.159,0,.3,0,.441a6.706,6.706,0,0,0-.5,3.348,3.883,3.883,0,0,0,1.117,2.7v.064c0,.053-.045.11-.045.177a4.944,4.944,0,0,0,0,2.546c0,.041.045.083.053.129.041.064.041.124.076.189a2.892,2.892,0,0,0,1.369,1.351,2.163,2.163,0,0,0,.053.774v.038a2.6,2.6,0,0,0,.257.679v.038a4.178,4.178,0,0,1-1.278.633l-.415.109v10.227H180.12v-10.32l-.459-.075a3.5,3.5,0,0,1-1.57-.74Zm4.755,1.735a5.494,5.494,0,0,0,1.328-.746,4.544,4.544,0,0,0,1.441.727v3.7l-2.769-.762Zm3.407-.994a3.472,3.472,0,0,1-1.567-.741h0c-.041-.042-.072-.083-.11-.125a1.809,1.809,0,0,1-.177-.245s-.042-.042-.042-.061a1.379,1.379,0,0,1-.1-.268v-.076c0-.091-.042-.193-.042-.287v-.083a1.063,1.063,0,0,1,.054-.4l.1-.463-.442-.166c-1.669-.632-1.495-2.028-1.2-3.285a1.277,1.277,0,0,0,.046-.8l-.072-.144-.137-.083a2.216,2.216,0,0,1-.812-1.464,6.457,6.457,0,0,1,.219-3.252l.17-.143v-.909a4.194,4.194,0,0,1,1.328-3.373l.152-.159v-.219a4.258,4.258,0,0,1,.083-.811,2.58,2.58,0,0,1,.234-.653h0a2.031,2.031,0,0,1,.378-.509l.038-.041a2.378,2.378,0,0,1,.529-.382l.193-.1a2.583,2.583,0,0,1,.761-.2h.257l.152-.2a2.882,2.882,0,0,1,1.852-1.189h0a1.68,1.68,0,0,1,1.292.883l.118.121a1.1,1.1,0,0,0,.343.162c.775.291,3.131,1.172,2.54,4.741a.934.934,0,0,0,.2.509c1.468,2.469,1.447,4.6-.067,6.343l-.2.223.083.287c.6,2.1-.117,2.929-.6,3.479a1.206,1.206,0,0,0-.425.963,3.548,3.548,0,0,1-2.659,3.243l-.419.1v10.228h-1.627V4643.4Zm2.638-51.487.1.041-.1.046Zm4.075.087-.1-.038.1-.045Zm.434.473h6.559l-8.144,5.333Zm-2.461,4.439-1.481-4.968,1.558-4.945,1.388,4.968Zm19.66-4.982h0Zm4.129,0v.117l-.2-.061Zm-4.589.6,1.528,5.125-7.9-5.141Zm.977-.569,1.557-4.945,1.389,4.967-1.465,4.946Zm3.942.525,22.036-.038v6.032l-23.792-.1Zm22.035-1.122-22.057.045-1.666-5.959H237.14Zm-26.963.068h-6.5l8.195-5.367Zm-16.752-.042-1.477-5.287,8.151,5.306Zm-4.916.076-22.15-.042v-5.967l24.045-.041Zm.037,1.1,1.755,5.886-23.933.139v-6.052Zm48.6-11.161v2.938H212.505l-10.594,6.936-10.5-6.835-.193-.086-24.847.038v-2.958Zm-8.219,81.109h-3.083c-4.4.038-11.755.068-16.946.038a7.243,7.243,0,0,0-5.488,2.073,7.911,7.911,0,0,0-1.521,2.164,7.567,7.567,0,0,0-7.194-4.284H174.57c-8.059,0-8.2-7.855-8.2-8.186v-.612a15.147,15.147,0,0,0,6.117-4.023v5.223h3.826v-8.131l2.769.3v7.825h3.826v-6.444l2.769.762v5.682H189.5v-5.795c1.354-.465,5.169-1.881,7.005-3.6l-.075,3.576h-.656v1.923h-1.237v3.023H209.4v-3.023h-1.327v-1.923h-.682l-.079-3.824c1.84,1.646,5.463,3,6.846,3.482v6.157h3.826v-6l2.769-.764v6.767h3.826v-8.158l2.769-.3v8.464h3.826v-5.637a14.884,14.884,0,0,0,6.036,4.042v1.062c0,.332-.147,8.13-8.283,8.13Z" transform="translate(-164.168 -4579.061)" fill="#1a1a1a"/>
</svg>
