<svg xmlns="http://www.w3.org/2000/svg" width="132.532" height="79.096" viewBox="0 0 132.532 79.096">
  <path id="path2185" d="M888.332,4666.182c0-5.522-.144-6.61-1.11-8.4-3.647-6.76-11.795-8.913-24.6-6.5-7.471,1.407-11.227,1.81-12.915,1.386-1.265-.317-1.091-.454,1.917-1.509,4.677-1.639,5.861-2.334,5.162-3.033-.862-.862-.684-4.441.455-9.195,1.986-8.282,1.2-11.773-2.821-12.528-.99-.185-1.8-.495-1.8-.687a14.042,14.042,0,0,1,2.312-2.619c1.272-1.249,2.313-2.693,2.313-3.211,0-1.266-1.707-4.538-2.958-5.669-3.372-3.049-27.848-3.1-45.716-.094-8.966,1.508-11.4,2.124-22.652,5.73a77.5,77.5,0,0,1-9.131,2.608c-.394-.394,7.8-3.979,14.564-6.374,16.825-5.954,29.568-8.345,46.734-8.77,9.225-.227,12.628-.11,17.728.608a103.375,103.375,0,0,1,16.98,3.819l1.4.532-2.79,4.1c-4.972,7.3-8.32,15.489-8.861,21.671-.272,3.082-.189,3.485.9,4.5a4.18,4.18,0,0,0,2.252,1.117,10.139,10.139,0,0,1,2.215.318c1.977.529,1.369-1.2-.965-2.741l-2.122-1.4,1.737-.449a7.931,7.931,0,0,0,2.378-.979c.8-.658.841-3.084.067-3.856-.423-.423-.215-.958.78-2.03,1.485-1.6,3.2-5.71,3.709-8.912.181-1.128.525-2.05.766-2.05,1.036,0,8.244-5.327,10.171-7.516,1.158-1.316,2.106-2.167,2.106-1.892a1.379,1.379,0,0,1-.355.853c-.637.636-1.654,4.109-1.349,4.6.166.269,1.47.34,2.926.171a24.825,24.825,0,0,1,5.969.283c3.139.561,3.237.619,1.622.965-2.558.547-3,1.254-1.42,2.288a2.844,2.844,0,0,1,1.34,1.84c0,.531,1.849,2.777,4.11,4.993,2.532,2.48,4.112,4.44,4.112,5.1,0,1.343-2.552,3.531-4.659,3.994-1.393.306-1.817.114-3.293-1.5-1.579-1.723-1.9-1.849-4.734-1.849-1.679,0-3.315-.276-3.656-.616-1.346-1.347-.566,1.477,1.449,5.241,6.786,12.678,7.867,16.176,6.724,21.742a21.789,21.789,0,0,1-5.089,10.064l-1.9,2.208Zm4.221-12c-.208-3.144-.667-4.468-3.629-10.507a65.821,65.821,0,0,1-4.011-9.684c-.746-3.334-2.494-4.949-3.869-3.574-.727.727-.722,1.156.049,4.575a69.959,69.959,0,0,0,2.556,8.142c2.613,6.708,2.6,6.777-.2,1.384-2.91-5.609-5.659-13.261-5.659-15.756,0-1.4-.166-1.606-1.156-1.466-1.551.219-3.611,5.9-3.2,8.826.43,3.08,1.268,4.249,7.945,11.089a92.947,92.947,0,0,1,8.377,9.643c1.983,3.015,2.171,3.169,2.585,2.089a16.96,16.96,0,0,0,.208-4.76Zm9.653-21.326c.177-.283.075-.513-.227-.513a.531.531,0,0,0-.545.513c0,.284.1.514.227.514S902.032,4633.144,902.206,4632.86Zm-7.066-.825c1.776-1.776-1.91-4.462-5.267-3.84l-2.056.381,1.421.686c1.023.495,1.337.949,1.123,1.624a2,2,0,0,0,.037,1.456c.507.819,3.846.6,4.756-.307Zm-13.18-5.345c-.355-1.653-.413-1.7-.774-.614a2.072,2.072,0,0,0,.238,1.94C882.292,4629.061,882.406,4628.78,881.96,4626.69Zm11.259-1.286c.977-.884.971-.931-.406-2.877a6.636,6.636,0,0,0-1.814-1.989c-.523-.038,0,.933,1.352,2.431.909,1.009.932,1.156.182,1.156-.474,0-.86.23-.86.513,0,.926-1.875.539-2.875-.6-.972-1.1-.97-1.1.208-.811,1.86.467,1.056-.814-.855-1.362-1.36-.389-1.772-.3-2.384.506-1.109,1.465-.929,2.438.64,3.444,1.739,1.114,5.369.893,6.816-.417Zm-7.715-5.134a2.174,2.174,0,0,0-1.476-.753c-.7.037-.676.136.163.77,1.3.981,2.135.971,1.314-.038Zm4.486-.053a1.017,1.017,0,0,0-.985-.037c-.41.166-.287.287.31.31.542.037.845-.1.674-.273Zm-114.326,46.848-1.67-.753v-4.35c0-3-.2-4.43-.642-4.609-.356-.139.283-.26,1.413-.26s1.766.117,1.413.26c-.8.321-.885,6.981-.11,8.43.576,1.073,3.227,1.364,4.589.5,1.181-.747,1.408-7.295.291-8.412-.8-.8-.716-.857,1.36-.819,1.222.038,1.932.159,1.579.3-.432.174-.643,1.492-.643,4.014,0,2.818-.222,4.034-.9,4.872-1.163,1.435-4.428,1.839-6.675.827Zm11.3.185c.745-.434.9-1.273.9-4.883,0-4.039-.087-4.393-1.156-4.823-1.027-.413-.956-.468.633-.5s2.2.407,5.242,3.693l3.453,3.725.038-3.426c.038-2.279-.189-3.512-.618-3.684-.351-.147.125-.28,1.065-.3,1.582-.038,1.645.038.863.8-.677.677-.81,1.688-.678,5.14.091,2.363.038,4.3-.147,4.295a35.5,35.5,0,0,1-3.854-4.077,33.241,33.241,0,0,0-3.924-4.11c-.212-.038-.385,1.687-.385,3.792,0,3.1.17,3.928.9,4.353s.486.524-1.156.524-1.874-.106-1.156-.524Zm13.373-.038c.737-.412.887-1.271.887-5.053,0-3.164-.2-4.635-.642-4.815-.355-.14.359-.28,1.578-.3,2.075-.038,2.165.038,1.363.818-.692.692-.823,1.639-.674,4.9.124,2.773.412,4.187.911,4.5.476.295-.14.449-1.792.449-1.89,0-2.3-.121-1.631-.5Zm9.3-.155a5.127,5.127,0,0,1-3.278-4.914c0-3.649,3.278-6,7.495-5.363,1.9.284,2.259.521,2.209,1.439-.045.869-.11.91-.3.2-.351-1.333-4.231-1.226-6,.17-1.885,1.482-1.933,5.083-.1,6.923a4.789,4.789,0,0,0,5.453.73c1.1-.591,1.335-.038.378.943-.814.814-3.864.751-5.869-.121Zm11.276-.091a5.225,5.225,0,0,1-1.594-8.277c3.589-3.845,10.164-1.64,10.164,3.409a5.1,5.1,0,0,1-3.391,4.981c-2.177.91-3.149.889-5.179-.11Zm4.99-.721c1.39-.744,2.186-4.041,1.471-6.093-1.555-4.459-7.654-2.946-7.654,1.9C819.729,4665.795,822.826,4667.9,825.912,4666.245Zm5.776.968c.737-.412.888-1.271.888-5.053,0-3.164-.2-4.635-.643-4.815-.355-.144.79-.28,2.54-.3,2.732-.038,3.3.121,3.983,1.1,1.017,1.452,1.012,2.4-.038,3.539-.759.839-.711,1.056.642,2.866a12.36,12.36,0,0,0,1.849,2.131.573.573,0,0,1-.222,1.113,11.072,11.072,0,0,1-3.04-2.627c-1.335-1.445-2.679-2.472-2.986-2.282-.916.566-.672,3.766.329,4.327.665.374.25.5-1.659.5s-2.323-.125-1.658-.5Zm4.7-5.382c1.035-.4,1.068-2.947.048-3.793-1.324-1.1-2.318-.227-2.318,2.033,0,2.109.45,2.458,2.27,1.76Zm7.621,5.409c.745-.433.9-1.273.9-4.882,0-4.04-.087-4.393-1.157-4.823-1.026-.413-.953-.47.643-.5s2.191.385,5.244,3.693l3.446,3.732.038-3.426c.038-2.278-.193-3.513-.619-3.685-.356-.143.17-.26,1.156-.26s1.51.117,1.156.26c-.45.182-.643,1.707-.643,5.1,0,2.661-.193,4.839-.425,4.839a27.348,27.348,0,0,1-3.926-3.983,43.16,43.16,0,0,0-3.944-4.154c-.241-.094-.441,1.571-.441,3.7,0,3.145.17,3.969.9,4.394s.486.525-1.156.525-1.874-.106-1.156-.525Zm15.93-.185c-1.635-.737-1.669-.822-1.669-4.084a18,18,0,0,0-.5-4.65c-.484-1.272-.434-1.316,1.413-1.278,1.052.038,1.625.159,1.272.3-.861.348-.883,7.949-.038,8.806.872.871,3.758.767,4.531-.166.842-1.014.712-8.018-.162-8.571-.344-.215.419-.382,1.691-.363,1.272.038,2.023.152,1.67.292-.432.173-.642,1.491-.642,4.012,0,2.819-.223,4.033-.905,4.872-1.161,1.435-4.427,1.84-6.675.827Zm10.6.042a14.922,14.922,0,0,0,.915-4.7c.3-3.537.227-4.086-.612-4.7-.878-.643-.836-.7.561-.69,1.356,0,1.718.4,3.531,3.854,1.111,2.116,2.212,3.848,2.445,3.848s1.283-1.733,2.332-3.853c1.626-3.286,2.1-3.853,3.207-3.846.94,0,1.1.132.593.456-1.057.67-.306,9.113.871,9.771.6.332.117.47-1.678.47-1.646,0-2.267-.158-1.793-.448.531-.325.683-1.316.566-3.678a19.025,19.025,0,0,0-.344-3.412,16.289,16.289,0,0,0-2.146,3.455,21.349,21.349,0,0,1-2.22,3.637,22.792,22.792,0,0,1-2.313-3.717l-2.055-3.716-.155,3.551c-.11,2.493.041,3.677.513,3.975.428.272.042.426-1.065.431-1.4,0-1.622-.125-1.156-.688Zm-20.033-19.809c2.72-2.54,2.041-3.909-2.459-4.959-5.5-1.282-8.286-3.169-12.5-8.452-1.466-1.838-3.947-4.836-5.515-6.664l-2.851-3.324,2.056,1.237c5.953,3.585,13.051,8.382,19.013,12.85l6.68,5.007-.177,2.9-.178,2.9h-5.666Zm2.624-6.821c-5.388-4.588-18.32-13.285-28.242-18.992-2.39-1.375-4.068-2.5-3.728-2.5,1.264,0,14.435,4.58,19.894,6.918,3.108,1.331,7.907,3.579,10.662,4.993,4.442,2.282,5.009,2.728,5,3.939,0,1.259-1.262,6.668-1.631,7.02a6.663,6.663,0,0,1-1.959-1.378Zm-3.6-11.8c-11-5.526-21.847-9.516-29.764-10.95l-3.9-.7,5.154-.049a104.08,104.08,0,0,1,11.513.741c6.659.824,18.427,3.528,19.834,4.557.743.543.724.722-.193,1.889-1.3,1.653-1.634,3.361-.613,3.137a7.344,7.344,0,0,1,4.885,1.249c.79.79,1.125,3.878.4,3.706-.212-.053-3.507-1.661-7.323-3.577Zm2.826-7.417c-9.059-4.122-29.713-6.332-45.965-4.919a57.876,57.876,0,0,1-6.579.375c-.272-.273,8.245-1.777,15.411-2.722,7.965-1.05,24.955-1.171,32.041-.227,5.723.763,5.678.744,7.294,2.848,1.372,1.787,1.436,2.943.238,4.316-.815.934-1.045.965-2.441.329Zm33.659-4.056a9.928,9.928,0,0,1,1.542-1.816c1.339-1.37,1.541-1.444,1.541-.567a2.921,2.921,0,0,1-2.349,2.623c-.4,0-.734-.11-.734-.238Zm3.441-1.274c.177-.678,2.762-2.246,8.048-4.882,4.283-2.135,8-3.882,8.258-3.882s-2.17,1.638-5.4,3.639-6.606,4.2-7.506,4.883c-2.042,1.551-3.777,1.674-3.4.241Zm-18.086-5.752c-6.622-2.685-19.644-5.067-27.688-5.067-3.626,0-3.969-.114-11.151-3.748a92.22,92.22,0,0,0-20-7.523c-3.774-.85,11.138-.222,17.471.736a174.192,174.192,0,0,1,41.036,12.253c6.606,2.958,7.109,3.238,6.647,3.7-.769.768-4,.589-6.316-.348Z" transform="translate(-773.253 -4593.429)" fill="#1a1a1a"/>
</svg>
