<svg xmlns="http://www.w3.org/2000/svg" width="21.089" height="17.463" viewBox="0 0 21.089 17.463">
  <path id="path6158" d="M1021.183,32.137a5.552,5.552,0,0,0-2.911-2.949l-1.242-.614-.953.524a4.876,4.876,0,0,1-5.367-.034l-.917-.551-.959.389a5.839,5.839,0,0,0-3.44,3.113l-.208.6-.524-.73a12.342,12.342,0,0,1-1.7-4.309,11.478,11.478,0,0,1,.276-4.588,10.609,10.609,0,0,1,20.374.1,12.271,12.271,0,0,1-.075,5.88,10.581,10.581,0,0,1-1.743,3.392l-.4.494Zm-6.193-3.851a4.662,4.662,0,0,0,2.526-4.681c-.166-2.524-1.847-4.277-4.1-4.277s-3.939,1.753-4.1,4.286C1009.079,27.1,1012.148,29.622,1014.99,28.286Z" transform="translate(-1002.847 -15.393)" fill="#999"/>
</svg>
