<svg xmlns="http://www.w3.org/2000/svg" width="21.089" height="17.463" viewBox="0 0 21.089 17.463">
  <path id="path6158" d="M1021.183,32.137a5.552,5.552,0,0,0-2.911-2.949l-1.242-.614-.953.524a4.876,4.876,0,0,1-5.367-.034l-.917-.552-.959.39a5.839,5.839,0,0,0-3.44,3.113l-.208.6-.524-.73a12.34,12.34,0,0,1-1.7-4.31,11.473,11.473,0,0,1,.276-4.587,10.609,10.609,0,0,1,20.374.1,12.259,12.259,0,0,1-.076,5.88,10.6,10.6,0,0,1-1.742,3.393l-.4.494Zm-6.193-3.851a4.659,4.659,0,0,0,2.525-4.681c-.166-2.524-1.847-4.277-4.1-4.277s-3.94,1.753-4.106,4.286C1009.078,27.1,1012.147,29.622,1014.99,28.286Z" transform="translate(-1002.847 -15.393)" fill="#fe323d"/>
</svg>
