<svg xmlns="http://www.w3.org/2000/svg" width="24" height="23.992" viewBox="0 0 24 23.992">
  <path id="path11456" d="M483.085,401.167a12.008,12.008,0,0,1-8.649-19.22,14.719,14.719,0,0,1,2.1-2.145,12.014,12.014,0,0,1,5.962-2.509,15.314,15.314,0,0,1,2.887-.021,12.3,12.3,0,0,1,6.155,2.588,12,12,0,0,1-8.455,21.307Zm6.7-8.287c.283-.144.3-.455.054-.822a8.256,8.256,0,0,0-1.13-1.312c-.54-.551-.624-.657-.624-.788,0-.216.057-.309.867-1.414.975-1.33,1.219-1.859.964-2.09-.1-.088-.179-.1-1.308-.106a5.6,5.6,0,0,0-1.318.047c-.081.042-.19.229-.377.647a7.659,7.659,0,0,1-1.3,2.087c-.233.256-.369.269-.48.048a4.912,4.912,0,0,1-.071-1.416c0-1.75.065-1.674-1.459-1.7-1.1-.018-1.317.015-1.533.231q-.256.256.053.336c.466.121.522.267.522,1.36,0,.912-.064,1.312-.217,1.371-.269.1-.975-.842-1.548-2.072-.473-1.015-.361-.952-1.7-.952-1.112,0-1.178.016-1.178.292a16.759,16.759,0,0,0,1.1,2.372A13.073,13.073,0,0,0,481,391.668a4.236,4.236,0,0,0,3,1.27c.5.027.612.02.757-.049a.6.6,0,0,0,.318-.513,2.076,2.076,0,0,1,.261-.925c.185-.173.33-.1.895.483,1.014,1.035.924.987,1.9,1.026a5.245,5.245,0,0,0,1.653-.08Z" transform="translate(-472 -377.214)" fill="#fff"/>
</svg>
