<svg xmlns="http://www.w3.org/2000/svg" width="24" height="24" viewBox="0 0 24 24">
  <g id="g11454" transform="translate(-688.531 -742.305)">
    <path id="path11456" d="M699.616,766.267a12.013,12.013,0,0,1-8.649-19.227,14.722,14.722,0,0,1,2.1-2.145,12,12,0,0,1,5.963-2.51,15.232,15.232,0,0,1,2.887-.022,12.3,12.3,0,0,1,6.155,2.59,12.007,12.007,0,0,1-8.456,21.313Zm6.7-8.291c.282-.144.3-.455.054-.822a8.331,8.331,0,0,0-1.131-1.312c-.54-.552-.623-.657-.623-.789,0-.216.057-.308.866-1.414.976-1.331,1.22-1.86.965-2.091-.1-.087-.18-.094-1.308-.106a5.738,5.738,0,0,0-1.318.047c-.082.042-.191.229-.378.647a7.625,7.625,0,0,1-1.3,2.088c-.233.256-.369.27-.481.048a4.941,4.941,0,0,1-.07-1.416c0-1.751.065-1.675-1.459-1.7-1.1-.017-1.317.015-1.533.231-.171.171-.154.283.053.337.465.121.522.267.522,1.36,0,.912-.064,1.312-.217,1.371-.269.1-.976-.842-1.549-2.073-.472-1.014-.36-.952-1.7-.952-1.112,0-1.178.017-1.178.293a16.828,16.828,0,0,0,1.1,2.373,13.148,13.148,0,0,0,1.914,2.667,4.234,4.234,0,0,0,3,1.271c.5.027.612.02.758-.049a.6.6,0,0,0,.318-.514,2.076,2.076,0,0,1,.261-.925c.184-.173.329-.095.895.483,1.013,1.036.924.987,1.9,1.027a5.24,5.24,0,0,0,1.654-.081Z" fill="#1a1a1a"/>
  </g>
</svg>
